<svg xmlns="http://www.w3.org/2000/svg" viewBox="0 0 343.30951 138.25733">
  <defs/>
  <defs>
    <linearGradient id="a" x1="0" x2="1" y1="0" y2="0" gradientTransform="matrix(103.69275 -.92728 -.92728 -103.69275 87.336571 173.16151)" gradientUnits="userSpaceOnUse" spreadMethod="pad">
      <stop offset="0" stop-color="#ef2a9e"/>
      <stop offset=".998967" stop-color="#54b8eb"/>
      <stop offset="1" stop-color="#54b8eb"/>
    </linearGradient>
  </defs>
  <path fill="#ef2a9e" d="M242.25227 26.085835c-4.86977 0-8.97079 1.6661-12.30273 4.99805-1.98636 1.98635-3.20419 4.22836-3.7168 6.85547-.51261 2.56303-.76758 6.34388-.76758 11.34179 0 4.99792.25497 8.77877.76758 11.3418.51261 2.56304 1.73044 4.86912 3.7168 6.85547 3.33194 3.33194 7.43296 4.99805 12.30273 4.99805 5.12607 0 9.35473-1.60121 12.87891-5.18946 3.13971-3.33194 4.35742-7.2404 4.35742-13.90429v-6.66407h-17.23633v7.4336h8.39453v1.72851c0 2.49896-.70519 4.55007-2.05078 6.08789-1.6019 1.73005-3.71664 2.5625-6.34375 2.5625-2.43488 0-4.35753-.76919-5.70313-2.37109-1.79412-2.1145-2.17773-3.90828-2.17773-12.87891 0-9.03469.51176-10.69995 2.17773-12.81445 1.40967-1.6019 3.33232-2.43555 5.70313-2.43555 4.42123 0 7.11188 2.24283 8.20117 6.66407h8.9707c-1.21744-7.94541-6.79158-14.60938-17.17187-14.60938zm22.36328.38477v45.62109h30.05078v-7.94531H273.5218v-11.08399h18.00586v-7.94531H273.5218v-10.70117h21.14453v-7.94531zm35.5625 0v45.62109h8.90625v-26.58984l8.77735 17.29883h6.02343l8.71485-17.29883v26.58984h8.90625v-45.62109h-8.7793l-11.85351 24.66992-11.91797-24.66992z" font-family="DINPro-Bold" font-size="64.0758667" font-weight="700" style="-inkscape-font-specification:DINPro-Bold"/>
  <path fill="url(#a)" d="M102.849 209.686l-15.513-36.525 14.858-36.797 36.525-15.512 36.797 14.857 15.513 36.526-14.857 36.796-36.525 15.514zm22.85-.217l13.935 13.688 13.687-13.935zm-20.353.181l32.529 13.135-13.456-13.217-.149.062-.063-.148zm36.04 13.105l32.288-13.715-18.861.17-.06.148-.149-.061zm-37.564-14.058l19.532-.175-19.706-19.356zm23.134-.207l25.092-.225-12.593-5.084zm-2.174-.129l13.404-5.693-19.095-7.71zm30.868-.127l19.531-.176-.174-19.531zm-14.935-5.588l13.504 5.452 5.451-13.503zm-37.874 4.544l-.169-18.861-.149-.06.061-.15-13.457-13.218zm20.29-.245l-5.31-12.499-12.593-5.085zm37.799-12.885l-5.085 12.593 17.585-17.903zm15.123-6.598l.062.148-.148.063.168 18.862 13.136-32.53zm-57.869-35.392l-8.436 20.891 8.807 20.736 20.891 8.436 20.737-8.808 8.435-20.89-8.808-20.736-20.891-8.436zm-14.4 35.664l13.502 5.452-8.05-18.955zm57.658 5.056l13.403-5.692-5.692-13.403zm-72.718-19.641l13.935 13.688-.247-27.622zm87.23 13.033l13.687-13.935-13.935-13.687zm-72.339-.618l5.085-12.593-5.309-12.5zm66.05-13.138l5.309 12.499-.224-25.092zm-66.145-14.128l5.692 13.403 7.711-19.095zM89.096 171.39l13.218-13.456-.063-.148.147-.063-.168-18.861zm80.035-.224l5.451-13.503-13.503-5.452zm6.562-14.098l.149.06-.059.149 13.456 13.218-13.715-32.288zm-72.509-19.73l.175 19.531 19.357-19.705zm1.752 19.308l12.5-5.31 5.085-12.593zm50.075-19.772l19.707 19.358-.175-19.533zm5.534 14.078l12.592 5.084-17.901-17.585zm-41.849-.151l18.954-8.051-13.502-5.451zm21.483-8.074l19.096 7.712-5.693-13.403zm-13.861-5.596l12.592 5.084 12.5-5.309zm-21.627-.775l18.861-.168.06-.149.149.06 13.219-13.457zm20.353-.182l27.622-.247-13.935-13.687zm29.113-.26l18.862-.169-32.529-13.134 13.458 13.217.146-.062z" transform="matrix(1.33333 0 0 -1.33333 -116.448 299.39332)"/>
  <path fill="#262626" d="M193.0957 81.070312c-1.2515 0-2.41038.478744-3.27539 1.34375-1.19628 1.196286-1.21484 2.355251-1.21484 5.31836 0 2.944704.01856 4.122073 1.21484 5.318359.86501.865007 2.02389 1.34375 3.27539 1.34375 1.2515 0 2.41234-.478743 3.27735-1.34375 1.19628-1.196286 1.21484-2.373655 1.21484-5.318359 0-2.963109-.01856-4.122074-1.21484-5.31836-.86501-.865006-2.02585-1.343749-3.27735-1.34375zm-41.55664.109376v13.103515h7.95117v-.882812h-6.95703v-5.28125h5.92578v-.884766h-5.92578V82.0625h6.95703v-.882812h-7.95117zm11.42969 0v8.853515c0 2.558212 1.85841 4.361328 4.49023 4.361328 2.63183 0 4.49024-1.803116 4.49024-4.361328v-8.853515h-.99219v8.724609c0 2.171719-1.38154 3.607422-3.49805 3.607422-2.1165 0-3.49609-1.435703-3.49609-3.607422v-8.724609h-.99414zm13.45313 0v13.103515h.99414v-6.035156h3.60742l3.1289 6.035156h1.15821l-3.16407-6.054687c1.84044-.312875 3.01758-1.563933 3.01758-3.533204 0-2.282145-1.61899-3.515624-3.7539-3.515624h-4.98828zm25.30664 0v13.103515h.99414v-5.556641h3.80859c2.26374 0 3.95703-1.380865 3.95703-3.773437 0-2.410976-1.69329-3.773437-3.95703-3.773437h-4.80273zm12.2207 0v13.103515h7.95117v-.882812h-6.95703v-5.28125h5.92578v-.884766h-5.92578V82.0625h6.95703v-.882812h-7.95117zm14.68555 0l-4.82032 13.103515h1.06641l1.14062-3.183594h6.11133l1.14063 3.183594h1.0664l-4.82031-13.103515h-.88476zm8.61328 0v13.103515h.99414V82.892578l7.56445 11.390625h.99414V81.179688h-.99414v11.355468l-7.56445-11.355468h-.99414zm19.32617 0v8.853515c0 2.558212 1.8584 4.361328 4.49023 4.361328 2.63183 0 4.49024-1.803116 4.49024-4.361328v-8.853515h-.99414v8.724609c0 2.171719-1.37959 3.607422-3.4961 3.607422-2.1165 0-3.49804-1.435703-3.49804-3.607422v-8.724609h-.99219zm13.45312 0v13.103515h7.95118v-.882812h-6.95704V81.179688h-.99414zm8.18946 0v.882812h3.90234v12.220703h.99414V82.0625h3.91992v-.882812h-8.8164zm12 0v13.103515h.99414V81.179688h-.99414zm5.65039 0v13.103515h.99414V83.480469l4.04883 8.96289h.99414l3.97461-8.96289v10.802734h.99414V81.179688h-.99414l-4.45313 10.103515-4.56445-10.103515h-.99414zm18.73437 0l-4.82031 13.103515h1.06641l1.14062-3.183594h6.11133l1.14062 3.183594h1.06836l-4.82226-13.103515h-.88477zm6.03711 0v.882812h3.90235v12.220703h.99414V82.0625h3.91992v-.882812h-8.81641zm12 0v13.103515h7.95117v-.882812h-6.95703v-5.28125h5.92578v-.884766h-5.92578V82.0625h6.95703v-.882812h-7.95117zm-139.54297.773437c.93863 0 1.82377.34916 2.48633 1.011719.93863.938624 1.01172 1.970109 1.01172 4.767578 0 2.797469-.07309 3.827-1.01172 4.765625-.66256.662558-1.5477 1.013672-2.48633 1.013672-.93862 0-1.82181-.351114-2.48437-1.013672-.93863-.938625-1.01172-1.968156-1.01172-4.765625s.07309-3.828954 1.01172-4.767578c.66256-.662559 1.54575-1.011719 2.48437-1.011719zm-15.67968.109375h3.86523c1.6932 0 2.88867.828355 2.88867 2.650391 0 1.822035-1.19547 2.65039-2.88867 2.65039h-3.86523V82.0625zm25.30664 0h3.69922c1.82203 0 3.07226.921354 3.07226 2.890625s-1.25023 2.888672-3.07226 2.888672h-3.69922V82.0625zm26.35546.443359l2.74219 7.710938h-5.48633l2.74414-7.710938zm85.9668 0l2.74219 7.710938h-5.48438l2.74219-7.710938z" font-family="DINPro-Light" font-size="18.40439987" font-weight="300" style="-inkscape-font-specification:DINPro-Light"/>
  <path fill="#262626" d="M154.61523 99.615234c-1.06377 0-2.0499.407326-2.78515 1.142576-1.01684 1.01685-1.03321 2.00285-1.0332 4.52149 0 2.50299.01636 3.50269 1.0332 4.51953.73525.73525 1.72138 1.14258 2.78515 1.14258 1.12635 0 2.19053-.46973 2.92579-1.28321.67268-.70396.90625-1.51617.90625-2.68945v-1.81445h-3.83204v.75h2.98829v1.00195c0 .95427-.18888 1.59497-.67383 2.20508-.57882.70397-1.43841 1.08008-2.31446 1.08008-.79783 0-1.5501-.29816-2.11328-.86133-.79783-.79783-.85937-1.67294-.85937-4.05078 0-2.37785.06154-3.25491.85937-4.05274.56318-.56317 1.31545-.85937 2.11328-.85937 1.5018 0 2.62852.95322 2.95704 2.50195h.84375c-.32852-1.95547-1.86096-3.253906-3.80079-3.253906zm79.4375 0c-1.06377 0-2.04794.407326-2.7832 1.142576-1.01684 1.01685-1.0332 2.00285-1.0332 4.52149 0 2.50299.01636 3.50269 1.0332 4.51953.73526.73525 1.71943 1.14258 2.7832 1.14258.8917 0 1.76871-.29622 2.45704-.84375l1.31445 1.3125.5625-.5625-1.31445-1.31446c.78218-.90733.79882-1.96992.79882-4.2539 0-2.51864-.01636-3.50464-1.0332-4.52149-.73525-.73525-1.72138-1.142576-2.78516-1.142576zm-72.03906.09375v11.138676h6.75781v-.75h-5.9121v-4.49024h5.0371v-.75195h-5.0371v-4.39453h5.9121v-.751956h-6.75781zm9.94922 0v11.138676h.8457v-9.6836l6.42969 9.6836h.84375V99.708984h-.84375v9.652346l-6.42969-9.652346h-.8457zm12.15625 0v11.138676h3.73828c1.17328 0 2.11248-.3449 2.78516-1.01758 1.12635-1.12635 1.08008-3.20523 1.08008-4.70703 0-1.5018.04627-3.27014-1.08008-4.39649-.67268-.67268-1.61188-1.017576-2.78516-1.017576h-3.73828zm11.20117 0v11.138676h6.75781v-.75h-5.91406v-4.49024h5.03711v-.75195h-5.03711v-4.39453h5.91406v-.751956h-6.75781zm9.94922 0v11.138676h.84375v-5.13086h3.06641l2.66015 5.13086h.98438l-2.68945-5.14649c1.56437-.26594 2.56445-1.33003 2.56445-3.0039 0-1.93983-1.37673-2.988286-3.19141-2.988286h-4.23828zm15.45508 0v11.138676h6.75781v-.75h-5.91211v-4.49024h5.03711v-.75195h-5.03711v-4.39453h5.91211v-.751956h-6.75781zm20.57227 0v7.525396c0 2.17447 1.57935 3.70703 3.8164 3.70703s3.81836-1.53256 3.81836-3.70703v-7.525396h-.8457V107.125c0 1.84596-1.17363 3.06641-2.97266 3.06641s-2.97266-1.22045-2.97266-3.06641v-7.416016h-.84374zm11.51367 0v11.138676h.84375V99.708984h-.84375zm3.6289 0v.751956h3.31641v10.38672h.8457v-10.38672h3.33203v-.751956h-7.49414zm8.71485 0l3.28515 6.523436v4.61524h.84375v-4.61524l3.28516-6.523436h-.90625l-2.76953 5.632816-2.83203-5.632816h-.90625zm14.46875 0v11.138676h.8457v-9.1836l3.44141 7.61914h.8457l3.37891-7.61914v9.1836h.84375V99.708984h-.84375l-3.78711 8.587896-3.87891-8.587896h-.8457zm16.0039 0l-4.09765 11.138676h.90625l.9707-2.70704h5.19336l.9707 2.70704h.90625l-4.09765-11.138676h-.75196zm7.40039 0v11.138676h.84375v-9.6836l6.42969 9.6836h.8457V99.708984h-.8457v9.652346l-6.42969-9.652346h-.84375zm11.99805 0v7.525396c0 2.17447 1.57935 3.70703 3.81641 3.70703 2.23705 0 3.81836-1.53256 3.81836-3.70703v-7.525396h-.84571V107.125c0 1.84596-1.17362 3.06641-2.97265 3.06641-1.79903 0-2.97071-1.22045-2.97071-3.06641v-7.416016h-.8457zm14.12695 0l-4.09961 11.138676h.90821l.96875-2.70704h5.19531l.96875 2.70704h.9082l-4.09961-11.138676h-.75zm7.39844 0v11.138676h6.75781v-.75h-5.91211V99.708984h-.8457zm-102.49805.658206c.79783 0 1.55011.2962 2.11329.85937.79783.79783.85937 1.67489.85937 4.05274 0 2.00239-.03065 2.97181-.53125 3.67578l-1.54883-1.54883-.5625.5625 1.56446 1.56445c-.54753.43803-1.19057.65821-1.89454.65821-.79783 0-1.54815-.29816-2.11132-.86133-.79783-.79783-.85938-1.67294-.85938-4.05078 0-2.37785.06155-3.25491.85938-4.05274.56317-.56317 1.31349-.85937 2.11132-.85937zm-49.08984.09375h2.69141c.89169 0 1.75118.18669 2.39258.85937.87604.92298.83007 2.55124.83007 3.80274s.04597 3.1903-.83007 4.11328c-.6414.67268-1.50089.86133-2.39258.86133h-2.69141v-9.63672zm21.15039 0h3.28516c1.43922 0 2.45703.70322 2.45703 2.25195s-1.01781 2.25195-2.45703 2.25195h-3.28516v-4.5039zm89.88867.375l2.33203 6.55468h-4.6621l2.33007-6.55468zm33.52539 0l2.33008 6.55468h-4.66015l2.33007-6.55468z" font-family="DINPro-Light" font-size="15.64373207" font-weight="300" style="-inkscape-font-specification:DINPro-Light"/>
  <path fill="#54b8eb" d="M151.8418 26.470703v45.621094h30.05078v-7.945313h-21.14453V53.0625h18.00586v-7.945312h-18.00586V34.416016h21.14453v-7.945313H151.8418zm34.85742 0v29.988281c0 9.675456 7.43203 16.017578 16.78711 16.017578 9.35507 0 16.78906-6.342122 16.78906-16.017578V26.470703h-8.84375v29.666016c0 5.254221-3.13962 8.394531-7.94531 8.394531s-7.88086-3.14031-7.88086-8.394531V26.470703h-8.90625z" font-family="DINPro-Bold" font-size="64.0758667" font-weight="700" style="-inkscape-font-specification:DINPro-Bold"/>
</svg>
